<svg width="261" height="262" viewBox="0 0 261 262" fill="none" xmlns="http://www.w3.org/2000/svg">
<path d="M134.314 1.17731C142.582 -0.402469 151.138 0.666483 158.764 4.23198L210.02 28.1983C217.663 31.7723 223.981 37.6721 228.069 45.0537L255.359 94.3292C259.463 101.74 261.108 110.262 260.058 118.667L253.094 174.404C252.044 182.81 248.352 190.665 242.551 196.838L203.977 237.884C198.199 244.033 190.624 248.197 182.336 249.781L126.759 260.4C118.49 261.979 109.935 260.911 102.309 257.345L51.0534 233.379C43.4097 229.805 37.092 223.905 33.0039 216.523L5.71442 167.248C1.61041 159.837 -0.0350456 151.315 1.01513 142.91L7.97874 87.1731C9.02892 78.7675 12.7205 70.9123 18.5216 64.7394L57.0958 23.6927C62.8743 17.5438 70.4493 13.3797 78.7374 11.7962L134.314 1.17731Z" fill="#2A48AA"/>
</svg>
