<svg width="78" height="97" viewBox="0 0 78 97" fill="none" xmlns="http://www.w3.org/2000/svg">
<path d="M19.0977 58.9987L39.4462 27.6642L59.7947 58.9987L19.0977 58.9987ZM0.675644 89.3691C0.675644 91.2973 1.39808 92.9846 2.84295 94.4308C4.28781 95.877 5.97348 96.6001 7.89997 96.6001L70.5108 96.6001C72.4373 96.6001 74.1229 95.877 75.5678 94.4308C77.0127 92.9846 77.7351 91.2973 77.7351 89.3691L77.7351 7.41734C77.7351 5.48906 77.0127 3.80183 75.5678 2.35562C74.123 0.909411 72.4373 0.186304 70.5108 0.186304L7.89997 0.186301C5.97349 0.186301 4.28781 0.909408 2.84295 2.35561C1.39808 3.80182 0.675648 5.48906 0.675648 7.41734L0.675644 89.3691ZM7.89997 89.3691L7.89997 7.41734L70.5108 7.41734L70.5108 89.3691L7.89997 89.3691ZM7.89997 89.3691L70.5108 89.3691L7.89997 89.3691Z" fill="white"/>
</svg>
