<svg width="213" height="213" viewBox="0 0 213 213" fill="none" xmlns="http://www.w3.org/2000/svg">
<path fill-rule="evenodd" clip-rule="evenodd" d="M205.374 145.324C183.669 199.667 122.02 226.125 67.6764 204.42C13.3331 182.715 -13.1254 121.066 8.57957 66.7228C30.2846 12.3795 91.9339 -14.079 146.277 7.62597C200.62 29.331 227.079 90.9803 205.374 145.324ZM129.039 49.0545C123.051 64.0458 106.044 71.3447 91.0531 65.3571C76.0619 59.3695 68.763 42.3628 74.7506 27.3716C80.7381 12.3803 97.7448 5.0814 112.736 11.069C127.727 17.0566 135.026 34.0633 129.039 49.0545ZM149.79 95.1921C164.781 101.18 181.788 93.8808 187.775 78.8896C193.763 63.8983 186.464 46.8916 171.473 40.904C156.482 34.9164 139.475 42.2153 133.487 57.2066C127.5 72.1978 134.799 89.2046 149.79 95.1921ZM195.246 146.986C189.258 161.977 172.251 169.276 157.26 163.289C142.269 157.301 134.97 140.294 140.957 125.303C146.945 110.312 163.952 103.013 178.943 109C193.934 114.988 201.233 131.995 195.246 146.986ZM100.913 198.801C115.905 204.788 132.911 197.489 138.899 182.498C144.887 167.507 137.588 150.5 122.596 144.512C107.605 138.525 90.5984 145.824 84.6108 160.815C78.6232 175.806 85.9222 192.813 100.913 198.801ZM78.5216 151.447C72.534 166.439 55.5273 173.737 40.5361 167.75C25.5448 161.762 18.2459 144.756 24.2335 129.764C30.2211 114.773 47.2278 107.474 62.219 113.462C77.2103 119.449 84.5092 136.456 78.5216 151.447ZM36.5055 101.186C51.4968 107.174 68.5035 99.875 74.491 84.8838C80.4786 69.8925 73.1797 52.8858 58.1885 46.8982C43.1972 40.9107 26.1905 48.2096 20.2029 63.2008C14.2153 78.1921 21.5143 95.1988 36.5055 101.186Z" fill="white"/>
</svg>
