<?xml version="1.0" standalone="no"?>
<!DOCTYPE svg PUBLIC "-//W3C//DTD SVG 20010904//EN"
 "http://www.w3.org/TR/2001/REC-SVG-20010904/DTD/svg10.dtd">
<svg version="1.0" xmlns="http://www.w3.org/2000/svg"
 width="276.000000pt" height="276.000000pt" viewBox="0 0 276.000000 276.000000"
 preserveAspectRatio="xMidYMid meet">
<metadata>
Created by potrace 1.14, written by Peter Selinger 2001-2017
</metadata>
<g transform="translate(0.000000,276.000000) scale(0.100000,-0.100000)"
fill="#000000" stroke="none">
<path d="M1092 2737 c-12 -12 -37 -75 -57 -142 -49 -161 -57 -176 -112 -205
-52 -28 -78 -58 -98 -116 l-13 -39 71 -6 c117 -10 334 -10 452 1 73 7 125 7
155 0 l45 -9 -53 4 c-94 7 -210 -11 -251 -41 l-36 -26 28 26 28 26 -126 0
-126 0 28 -29 c19 -19 32 -26 40 -19 18 15 106 6 111 -12 4 -13 3 -13 -11 -2
-9 8 -33 12 -59 10 -42 -3 -43 -3 -41 -38 l3 -35 -13 34 c-6 19 -28 47 -48 63
-30 24 -47 29 -115 34 -145 11 -200 -28 -197 -141 2 -103 27 -172 83 -227 36
-37 54 -48 79 -48 44 0 82 22 119 67 17 21 31 35 32 30 0 -4 -19 -28 -41 -52
l-41 -45 37 -41 c20 -23 48 -65 61 -93 23 -51 74 -217 74 -241 0 -7 -16 -23
-35 -35 -19 -12 -35 -24 -35 -27 0 -2 16 5 35 17 40 25 35 31 61 -83 26 -119
69 -158 170 -159 l54 -1 0 -68 c0 -50 -6 -79 -20 -106 -25 -48 -25 -70 1 -141
66 -179 82 -231 113 -372 57 -261 76 -353 82 -402 l7 -48 613 0 614 0 -1 98
c0 69 -3 91 -10 77 -8 -16 -8 -15 -2 5 4 14 8 126 10 250 l3 225 -132 87 c-73
47 -158 101 -188 119 -126 74 -127 74 -161 171 l-33 90 -50 -6 c-28 -3 -72 -9
-97 -12 l-46 -6 -26 53 c-81 173 -75 355 21 577 33 76 49 100 100 147 110 102
149 230 138 460 -6 143 -19 207 -66 338 l-32 87 -537 0 -538 0 -21 -23z m559
-574 c13 -16 12 -17 -3 -4 -10 7 -18 15 -18 17 0 8 8 3 21 -13z m27 -48 c-3
-3 -9 2 -12 12 -6 14 -5 15 5 6 7 -7 10 -15 7 -18z m-281 -57 c-3 -7 -5 -2 -5
12 0 14 2 19 5 13 2 -7 2 -19 0 -25z m-9 -30 c15 -18 70 -24 88 -10 5 4 5 2
-1 -5 -5 -6 -22 -15 -37 -18 -21 -5 -33 -1 -52 19 -15 14 -26 33 -25 43 0 14
2 15 6 3 3 -8 12 -23 21 -32z m-418 8 c0 -22 -29 -46 -53 -45 l-22 0 22 9 c12
5 28 18 35 30 15 24 18 25 18 6z m727 -18 c-3 -7 -5 -2 -5 12 0 14 2 19 5 13
2 -7 2 -19 0 -25z m-127 -18 c-14 -35 -60 -65 -110 -74 -27 -4 -25 -2 12 10
48 15 98 62 98 91 0 9 3 13 6 10 4 -4 1 -20 -6 -37z m-496 8 c-4 -13 -10 -25
-14 -28 -4 -3 -15 -20 -24 -37 -26 -51 -28 -39 -3 15 31 65 56 95 41 50z m456
12 c0 -5 -4 -10 -10 -10 -5 0 -10 5 -10 10 0 6 5 10 10 10 6 0 10 -4 10 -10z
m-120 -43 c13 -5 13 -6 -1 -6 -8 -1 -26 11 -40 27 l-24 27 25 -21 c14 -12 32
-24 40 -27z m-420 30 c0 -2 -10 -12 -22 -23 l-23 -19 19 23 c18 21 26 27 26
19z m-140 -42 c13 -14 21 -25 18 -25 -2 0 -15 11 -28 25 -13 14 -21 25 -18 25
2 0 15 -11 28 -25z m401 8 c13 -16 12 -17 -3 -4 -10 7 -18 15 -18 17 0 8 8 3
21 -13z m234 7 c-3 -5 -14 -10 -23 -9 -14 0 -13 2 3 9 27 11 27 11 20 0z m212
-27 c-3 -10 -5 -4 -5 12 0 17 2 24 5 18 2 -7 2 -21 0 -30z m-697 2 c-13 -14
-27 -25 -32 -25 -9 0 42 49 51 50 3 0 -6 -11 -19 -25z m-63 9 c-3 -3 -12 -4
-19 -1 -8 3 -5 6 6 6 11 1 17 -2 13 -5z m473 -27 c13 -5 13 -6 -1 -6 -9 -1
-24 9 -35 22 -19 22 -19 22 1 6 11 -9 27 -19 35 -22z m-95 -37 c27 -27 47 -50
44 -50 -3 0 -27 23 -54 50 -27 28 -47 50 -44 50 3 0 27 -22 54 -50z m-372 23
c-7 -2 -19 -2 -25 0 -7 3 -2 5 12 5 14 0 19 -2 13 -5z m733 -42 c-27 -52 -80
-84 -146 -89 -32 -2 -65 0 -74 5 -12 6 2 8 42 5 85 -6 149 32 175 103 6 16 12
24 14 18 2 -6 -3 -25 -11 -42z m-506 -118 c0 -10 -42 -53 -52 -53 -12 0 -10
34 4 48 13 13 48 17 48 5z m610 -1338 c0 -2 -33 -38 -73 -79 -40 -41 -71 -80
-69 -88 2 -9 0 -9 -7 2 -11 17 -7 23 83 112 57 56 66 63 66 53z m957 -337 c-3
-8 -6 -5 -6 6 -1 11 2 17 5 13 3 -3 4 -12 1 -19z"/>
<path d="M964 1324 c-18 -14 -18 -15 4 -4 12 6 22 13 22 15 0 8 -5 6 -26 -11z"/>
<path d="M1078 783 c-16 -2 -28 -8 -28 -12 0 -5 -28 -16 -62 -26 -67 -18 -240
-103 -323 -157 -52 -35 -61 -49 -94 -138 -46 -125 -71 -228 -77 -309 -3 -47
-7 -98 -9 -113 l-4 -28 68 0 68 0 6 94 c8 113 22 180 46 215 9 14 28 58 41 96
38 116 61 154 105 178 22 12 48 31 58 41 9 10 17 16 17 13 0 -11 94 44 115 67
11 13 28 25 38 29 9 3 17 11 17 17 0 5 6 10 13 10 7 0 22 7 33 15 10 8 15 14
9 13 -5 0 -22 -3 -37 -5z"/>
<path d="M1183 736 c-15 -23 -32 -45 -38 -51 -27 -24 -43 -93 -44 -197 -2 -90
1 -115 20 -160 12 -29 28 -58 36 -65 18 -15 45 -177 37 -225 -5 -34 -3 -38 15
-38 12 0 21 1 21 3 0 2 -9 45 -21 97 -17 78 -20 128 -19 293 0 209 1 214 31
316 10 35 19 64 19 65 0 2 -7 3 -15 3 -8 0 -27 -19 -42 -41z"/>
</g>
</svg>
